HIERARCHY
ROOT Hips
{
	OFFSET -0.001795 -0.223333 0.028219
	CHANNELS 6 Xposition Yposition Zposition Zrotation Yrotation Xrotation 
	JOINT LeftUpLeg
	{
		OFFSET 0.069520 -0.091406 -0.006815
		CHANNELS 3 Zrotation Yrotation Xrotation
		JOINT LeftLeg
		{
			OFFSET 0.034277 -0.375199 -0.004496
			CHANNELS 3 Zrotation Yrotation Xrotation
			JOINT LeftFoot
			{
				OFFSET -0.013596 -0.397961 -0.043693
				CHANNELS 3 Zrotation Yrotation Xrotation
				JOINT LeftToe
				{
					OFFSET 0.026358 -0.055791 0.119288
					CHANNELS 3 Zrotation Yrotation Xrotation
					End Site
					{
						OFFSET 0.000000 0.000000 0.000000
					}
				}
			}
		}
	}
	JOINT RightUpLeg
	{
		OFFSET -0.067670 -0.090522 -0.004320
		CHANNELS 3 Zrotation Yrotation Xrotation
		JOINT RightLeg
		{
			OFFSET -0.038290 -0.382569 -0.008850
			CHANNELS 3 Zrotation Yrotation Xrotation
			JOINT RightFoot
			{
				OFFSET 0.015774 -0.398415 -0.042312
				CHANNELS 3 Zrotation Yrotation Xrotation
				JOINT RightToe
				{
					OFFSET -0.025372 -0.048144 0.123348
					CHANNELS 3 Zrotation Yrotation Xrotation
					End Site
					{
						OFFSET 0.000000 0.000000 0.000000
					}
				}
			}
		}
	}
	JOINT Spine
	{
		OFFSET -0.002533 0.108963 -0.026696
		CHANNELS 3 Zrotation Yrotation Xrotation
		JOINT Spine1
		{
			OFFSET 0.005487 0.135180 0.001092
			CHANNELS 3 Zrotation Yrotation Xrotation
			JOINT Spine2
			{
				OFFSET 0.001457 0.052922 0.025425
				CHANNELS 3 Zrotation Yrotation Xrotation
				JOINT Neck
				{
					OFFSET -0.002778 0.213870 -0.042857
					CHANNELS 3 Zrotation Yrotation Xrotation
					JOINT Head
					{
						OFFSET 0.005152 0.064970 0.051349
						CHANNELS 3 Zrotation Yrotation Xrotation
						End Site
						{
							OFFSET 0.000000 0.000000 0.000000
						}
					}
				}
				JOINT LeftShoulder
				{
					OFFSET 0.078845 0.121749 -0.034090
					CHANNELS 3 Zrotation Yrotation Xrotation
					JOINT LeftArm
					{
						OFFSET 0.090977 0.030469 -0.008868
						CHANNELS 3 Zrotation Yrotation Xrotation
						JOINT LeftForeArm
						{
							OFFSET 0.259612 -0.012772 -0.027456
							CHANNELS 3 Zrotation Yrotation Xrotation
							JOINT LeftHand
							{
								OFFSET 0.249234 0.008986 -0.001171
								CHANNELS 3 Zrotation Yrotation Xrotation
								End Site
								{
									OFFSET 0.000000 0.000000 0.000000
								}
							}
						}
					}
				}
				JOINT RightShoulder
				{
					OFFSET -0.081759 0.118833 -0.038615
					CHANNELS 3 Zrotation Yrotation Xrotation
					JOINT RightArm
					{
						OFFSET -0.096012 0.032551 -0.009143
						CHANNELS 3 Zrotation Yrotation Xrotation
						JOINT RightForeArm
						{
							OFFSET -0.253742 -0.013329 -0.021401
							CHANNELS 3 Zrotation Yrotation Xrotation
							JOINT RightHand
							{
								OFFSET -0.255298 0.007772 -0.005559
								CHANNELS 3 Zrotation Yrotation Xrotation
								End Site
								{
									OFFSET 0.000000 0.000000 0.000000
								}
							}
						}
					}
				}
			}
		}
	}
}
MOTION
Frames: 13
Frame Time: 0.050000
0.007072 0.951701 -0.073107 -6.580067 -13.701664 19.581467 12.498424 1.065276 -23.992958 -3.262589 0.454568 2.292202 7.733454 15.421494 18.609091 0.000000 0.000000 0.000000 1.439971 3.314406 -24.740645 1.734642 0.000847 3.495159 -4.571930 -16.965698 18.327487 0.000000 0.000000 0.000000 -11.117114 5.700031 41.142257 6.926475 -1.439621 -18.873723 -2.249400 -5.945518 29.101233 -13.243512 7.618089 -22.815437 0.000000 0.000000 0.000000 -5.177194 -16.325591 8.056883 -2.221009 -49.867094 -3.021063 49.752298 -33.085095 -11.948864 0.000000 0.000000 0.000000 0.941576 16.634433 5.562839 64.722603 24.350361 2.894074 6.462678 66.356247 6.192475 0.000000 0.000000 0.000000 
0.007167 0.951148 -0.074311 -6.694294 -13.995231 19.638345 12.625491 1.120278 -23.956500 -3.317597 0.465261 2.202034 7.931739 15.658087 18.748634 0.000000 0.000000 0.000000 1.668339 3.458287 -25.289491 1.761061 0.020860 4.037449 -4.647276 -17.152046 18.297189 0.000000 0.000000 0.000000 -10.976679 5.694724 41.187784 6.788046 -1.411036 -18.868924 -1.787183 -5.770890 29.138377 -12.633405 7.170102 -23.362783 0.000000 0.000000 0.000000 -4.480961 -15.710430 7.603633 -4.026295 -49.147904 -2.329283 52.683659 -33.662949 -12.948012 0.000000 0.000000 0.000000 0.816280 16.926388 5.667649 64.946760 25.118937 3.367687 3.952711 65.719396 4.565030 0.000000 0.000000 0.000000 
0.007587 0.950842 -0.075040 -6.760867 -14.382345 19.611980 12.555885 1.158252 -24.066628 -3.179837 0.453020 2.705258 8.206657 15.999208 18.593054 0.000000 0.000000 0.000000 1.775897 3.565059 -25.675811 1.884502 0.037152 4.697655 -4.622519 -17.059123 17.608286 0.000000 0.000000 0.000000 -10.467643 5.472061 40.950324 6.640248 -1.387150 -18.831861 -1.241393 -4.975941 29.036910 -11.853743 6.827485 -22.851815 0.000000 0.000000 0.000000 -5.282359 -15.331021 7.577079 -5.186309 -48.434273 -2.066349 55.357174 -35.369188 -14.565150 0.000000 0.000000 0.000000 1.052365 17.493453 5.903390 64.882868 25.981212 4.016144 0.857007 65.405364 2.754706 0.000000 0.000000 0.000000 
0.008265 0.950170 -0.075439 -6.658301 -14.307238 19.553731 12.784569 1.195874 -23.996587 -3.404666 0.488633 2.674142 8.248838 16.090918 17.982240 0.000000 0.000000 0.000000 1.604538 3.580268 -25.909760 1.987449 0.042917 5.133549 -4.456529 -16.726830 17.264600 0.000000 0.000000 0.000000 -9.950677 5.202230 40.961505 6.519128 -1.355306 -18.897996 -0.653289 -4.180324 29.025473 -10.812434 6.350717 -22.298448 0.000000 0.000000 0.000000 -5.421547 -14.969192 7.362261 -7.583178 -47.436821 -1.376300 59.765966 -37.571001 -17.159142 0.000000 0.000000 0.000000 -0.136419 17.516813 5.945287 65.695678 26.701282 4.641998 -4.178362 65.812561 -0.163053 0.000000 0.000000 0.000000 
0.008985 0.950192 -0.075806 -6.506658 -14.449135 19.579885 12.731184 1.183828 -23.908306 -3.436745 0.498742 2.911308 8.259863 16.104573 17.596052 0.000000 0.000000 0.000000 1.515383 3.618711 -26.163431 2.006582 0.052872 5.410798 -4.464808 -16.696705 16.918338 0.000000 0.000000 0.000000 -9.564945 5.017602 40.837067 6.677738 -1.363415 -19.276621 -0.286581 -3.317580 28.869223 -9.816586 5.863961 -22.021227 0.000000 0.000000 0.000000 -5.762924 -14.244027 7.043266 -10.258639 -46.415682 -0.682122 63.700732 -40.237235 -20.066216 0.000000 0.000000 0.000000 -0.181021 17.503914 5.978885 65.208928 26.478073 4.647985 -8.161942 66.817243 -2.598147 0.000000 0.000000 0.000000 
0.009740 0.950010 -0.076499 -6.490109 -14.666148 19.612709 12.800395 1.227027 -23.953711 -3.618621 0.537463 3.239365 8.651943 16.685292 16.915271 0.000000 0.000000 0.000000 1.444936 3.682233 -26.498043 2.054549 0.070328 5.916514 -4.269242 -16.338668 16.499863 0.000000 0.000000 0.000000 -9.280746 4.903836 40.729030 6.731189 -1.362560 -19.486806 -0.033121 -2.587290 28.644189 -9.038747 5.465643 -22.030813 0.000000 0.000000 0.000000 -6.426179 -13.720144 6.873693 -11.922287 -45.527983 -0.303756 66.542221 -42.351446 -22.556883 0.000000 0.000000 0.000000 -0.486349 17.037041 5.841949 65.375719 26.339717 4.730353 -10.102087 69.219195 -3.897525 0.000000 0.000000 0.000000 
0.010514 0.950368 -0.077596 -6.367144 -15.154823 19.618963 12.820995 1.269279 -23.854812 -3.702447 0.563827 3.546839 8.487019 16.394195 16.460408 0.000000 0.000000 0.000000 1.240476 3.708192 -26.677604 2.158483 0.078249 6.285616 -4.064708 -16.042653 16.328862 0.000000 0.000000 0.000000 -9.187475 4.916859 40.562167 6.575425 -1.305375 -19.774399 -0.310577 -2.880483 28.609542 -8.870770 5.314406 -21.731826 0.000000 0.000000 0.000000 -6.387672 -13.557445 6.849086 -11.938668 -44.352673 -0.330514 65.966911 -41.677572 -21.834874 0.000000 0.000000 0.000000 -0.199349 16.921054 5.781192 64.823767 26.020165 4.371245 -9.619619 72.270467 -4.015506 0.000000 0.000000 0.000000 
0.011510 0.950625 -0.078956 -6.297418 -15.144778 19.605322 12.620557 1.243998 -24.082398 -3.742166 0.575811 3.806264 8.539369 16.497292 16.074035 0.000000 0.000000 0.000000 1.130105 3.734637 -26.912663 2.209222 0.092586 6.761185 -3.882271 -15.721585 16.247285 0.000000 0.000000 0.000000 -8.896606 4.823320 40.865737 6.613579 -1.273856 -20.232072 -0.550655 -3.588213 28.407693 -8.838499 5.175929 -21.995396 0.000000 0.000000 0.000000 -7.805894 -14.015281 7.454015 -10.241143 -43.550573 -0.885718 62.219891 -40.332141 -19.583916 0.000000 0.000000 0.000000 -0.030459 16.500702 5.600362 64.109559 25.669655 3.957680 -5.768256 76.600865 -1.690674 0.000000 0.000000 0.000000 
0.012506 0.950826 -0.080300 -6.454349 -15.134750 19.661359 12.695272 1.288431 -24.351213 -3.795158 0.588548 3.963958 8.655921 16.679826 16.004389 0.000000 0.000000 0.000000 1.073857 3.710660 -26.825738 2.108435 0.102567 6.708552 -3.416597 -14.839460 15.777864 0.000000 0.000000 0.000000 -8.674515 4.754572 41.125992 6.839300 -1.296568 -20.548096 -1.068424 -4.584279 28.621233 -9.358452 5.358777 -22.036393 0.000000 0.000000 0.000000 -8.923358 -14.724620 8.187384 -8.312376 -43.211835 -1.437134 55.950428 -37.726023 -15.958737 0.000000 0.000000 0.000000 0.593107 16.335799 5.483558 63.242126 25.437982 3.527740 -3.076804 80.640744 0.008473 0.000000 0.000000 0.000000 
0.013498 0.950653 -0.081289 -6.506258 -15.017811 19.742217 12.792556 1.313344 -24.518964 -3.711755 0.579465 4.287712 8.470915 16.423558 15.813123 0.000000 0.000000 0.000000 1.201335 3.753778 -26.986093 2.000118 0.115685 6.730175 -3.179999 -14.336002 15.417789 0.000000 0.000000 0.000000 -8.162198 4.527861 41.403157 6.550184 -1.196084 -20.910686 -1.569139 -6.131660 28.566559 -9.687018 5.391057 -21.591068 0.000000 0.000000 0.000000 -9.416467 -15.646566 8.981621 -7.286913 -42.670636 -1.655136 50.434709 -35.701816 -13.196675 0.000000 0.000000 0.000000 1.492714 16.393747 5.378649 62.176102 24.394849 2.659523 10.370517 83.905842 11.220094 0.000000 0.000000 0.000000 
0.014497 0.950199 -0.081853 -6.769002 -15.000562 20.067544 12.942195 1.371727 -24.751239 -3.707275 0.580682 4.364938 8.595446 16.635563 15.309826 0.000000 0.000000 0.000000 1.551418 3.838081 -27.127104 1.599056 0.159180 6.597731 -3.112513 -14.229393 15.325458 0.000000 0.000000 0.000000 -7.878865 4.420487 41.530675 6.341754 -1.119386 -21.220521 -1.769862 -7.267030 28.783777 -9.764750 5.178534 -22.497096 0.000000 0.000000 0.000000 -9.452242 -15.741699 9.235955 -8.370386 -42.923127 -1.306495 46.940994 -35.621101 -11.942872 0.000000 0.000000 0.000000 1.672518 15.902172 5.099751 61.786054 23.752852 2.084500 25.660593 85.731476 25.139425 0.000000 0.000000 0.000000 
0.015652 0.950054 -0.081964 -6.874515 -15.406738 20.111044 13.164258 1.503660 -25.084014 -4.152325 0.696341 5.343222 9.062411 17.310028 15.277641 0.000000 0.000000 0.000000 1.514983 3.890236 -27.315492 1.670645 0.155910 6.638930 -2.756507 -13.772903 15.637505 0.000000 0.000000 0.000000 -8.091130 4.604442 41.589336 6.299041 -1.122879 -21.108660 -2.093273 -7.901162 28.867962 -10.059101 5.205276 -22.970914 0.000000 0.000000 0.000000 -9.302999 -15.283166 9.074479 -9.579374 -42.354796 -0.956362 46.248003 -36.102991 -11.811038 0.000000 0.000000 0.000000 2.204637 15.770283 4.955911 60.360534 23.473508 1.774067 26.580559 86.650431 25.880807 0.000000 0.000000 0.000000 
0.016990 0.949770 -0.081564 -6.970140 -15.450200 20.098675 13.493404 1.632471 -25.452258 -4.773633 0.848078 6.147255 9.550587 18.031454 15.608791 0.000000 0.000000 0.000000 1.813811 3.958566 -27.405779 1.313550 0.215791 6.933453 -2.531432 -13.432810 15.735128 0.000000 0.000000 0.000000 -7.769444 4.472939 41.699956 5.741802 -1.014445 -20.951075 -2.020033 -8.371493 28.753335 -9.790206 4.896453 -23.646758 0.000000 0.000000 0.000000 -8.959471 -14.914273 8.885983 -11.470838 -41.727257 -0.468272 47.063762 -37.860051 -12.570324 0.000000 0.000000 0.000000 2.542251 15.579446 4.812193 59.153036 22.616635 1.279893 27.260929 86.122491 25.807810 0.000000 0.000000 0.000000 
